<?xml version="1.0" encoding="UTF-8" standalone="no"?>
<!-- Created with Inkscape (http://www.inkscape.org/) -->

<svg
   xmlns:dc="http://purl.org/dc/elements/1.1/"
   xmlns:cc="http://creativecommons.org/ns#"
   xmlns:rdf="http://www.w3.org/1999/02/22-rdf-syntax-ns#"
   xmlns:svg="http://www.w3.org/2000/svg"
   xmlns="http://www.w3.org/2000/svg"
   xmlns:sodipodi="http://sodipodi.sourceforge.net/DTD/sodipodi-0.dtd"
   xmlns:inkscape="http://www.inkscape.org/namespaces/inkscape"
   version="1.1"
   id="svg2"
   width="700"
   height="392"
   viewBox="0 0 700 392"
   sodipodi:docname="logo-java-blanc.svg"
   inkscape:version="0.92.3 (2405546, 2018-03-11)">
  <metadata
     id="metadata8">
    <rdf:RDF>
      <cc:Work
         rdf:about="">
        <dc:format>image/svg+xml</dc:format>
        <dc:type
           rdf:resource="http://purl.org/dc/dcmitype/StillImage" />
        <dc:title></dc:title>
      </cc:Work>
    </rdf:RDF>
  </metadata>
  <defs
     id="defs6" />
  <sodipodi:namedview
     pagecolor="#ffffff"
     bordercolor="#666666"
     borderopacity="1"
     objecttolerance="10"
     gridtolerance="10"
     guidetolerance="10"
     inkscape:pageopacity="0"
     inkscape:pageshadow="2"
     inkscape:window-width="1790"
     inkscape:window-height="853"
     id="namedview4"
     showgrid="false"
     inkscape:zoom="0.59428571"
     inkscape:cx="-36.177887"
     inkscape:cy="196"
     inkscape:window-x="0"
     inkscape:window-y="0"
     inkscape:window-maximized="0"
     inkscape:current-layer="svg2" />
  <path
     style="fill:#ffffff"
     d="m 144.13462,379.99131 c -32.46238,-1.99643 -71.782332,-9.45577 -68.284022,-12.95408 0.32045,-0.32046 7.94045,0.10173 16.93333,0.9382 30.934172,2.87731 56.759252,3.89938 82.850692,3.27893 58.49543,-1.39101 96.13192,-9.0254 120.36345,-24.41518 3.7749,-2.39749 7.09144,-4.13108 7.3701,-3.85243 1.37241,1.37242 -1.38757,6.56179 -5.56312,10.4599 -7.35946,6.87048 -21.81958,13.44067 -39.67043,18.02491 -6.03986,1.55108 -29.45225,4.87076 -46.67696,6.6184 -14.87837,1.50957 -55.18409,2.6479 -67.32304,1.90135 z M 93.134618,359.52514 c -26.26621,-1.16125 -54.44219,-5.44468 -63.22291,-9.6114 -13.50171,-6.40698 -6.34805,-17.76768 15.24813,-24.2155 13.94863,-4.16454 38.47478,-6.83078 38.47478,-4.1826 0,0.51101 -2.5875,1.42648 -5.75,2.03438 -14.6337,2.81291 -23.5492,5.80333 -27.06377,9.07765 -2.77054,2.58115 -2.74777,3.54483 0.12827,5.42929 11.40615,7.47359 71.803552,12.15148 124.185502,9.6184 56.00626,-2.70835 88.37657,-6.83667 99.75884,-12.72267 5.18354,-2.68052 6.83318,-4.99393 5.69525,-7.98691 -0.55553,-1.46114 -0.77178,-2.89488 -0.48056,-3.1861 1.09896,-1.09897 5.44271,2.19044 6.60823,5.00423 1.63083,3.93719 -0.52664,6.78252 -9.05121,11.93698 -11.97157,7.23873 -37.56136,13.72672 -66.53055,16.86804 -24.19864,2.62401 -81.26344,3.56037 -118.000002,1.93621 z m 46.117542,-35.96073 c -26.13666,-2.34417 -42.161032,-8.3265 -44.214032,-16.50628 -1.30921,-5.2163 4.16079,-11.06234 12.761952,-13.63931 4.51582,-1.35297 5.78061,-0.57683 3.91863,2.40468 -1.19801,1.91832 -1.06811,2.38003 1.22438,4.35195 2.87088,2.46943 6.35931,3.04128 24.19153,3.96569 14.27124,0.7398 44.38613,-0.91817 57,-3.13813 l 9,-1.58394 9,5.08145 c 4.95,2.7948 9.5625,5.08248 10.25,5.08374 0.6875,0.001 1.25,0.58871 1.25,1.30545 0,2.07617 -19.63146,7.68066 -39.5,11.27667 -10.24085,1.85349 -32.18356,2.53698 -44.88246,1.39803 z M 345.291,301.83654 c -4.09193,-5.01896 -4.47825,-5.87714 -3.03857,-6.75 0.90716,-0.55 3.81037,-2.67513 6.45158,-4.7225 5.59183,-4.3346 10.1387,-12.85934 11.84682,-22.21116 0.70087,-3.83719 1.08379,-27.25612 1.08379,-66.28275 v -60.34909 l 11.25,0.28275 11.25,0.28275 v 62.5 c 0,68.40205 0.083,67.29423 -6.04497,80.71756 -3.85894,8.45306 -10.75584,15.88097 -18.2911,19.69937 -7.55616,3.829 -9.07394,3.49767 -14.50755,-3.16693 z M 124.63462,281.50277 c -18.64867,-1.77984 -34.353802,-5.66124 -38.516422,-9.51903 -5.7945,-5.37016 -1.27961,-14.45908 9.11426,-18.34792 8.491752,-3.17717 11.799572,-2.52889 7.402162,1.45072 -4.665972,4.22264 -1.34,7.68574 9.60923,10.00541 14.15682,2.99923 60.47177,1.40992 88.13,-3.02419 12.58876,-2.01821 13.83409,-1.91665 18.06941,1.47363 2.03025,1.62517 5.37886,3.65621 7.44136,4.51342 2.0625,0.85721 3.75,1.93698 3.75,2.39948 0,1.82032 -30.52565,9.18199 -45.97377,11.08719 -9.685,1.19444 -46.35762,1.17039 -59.02623,-0.0387 z m 120,-3.25571 c 0,-0.73672 1.02345,-1.80581 2.27434,-2.37575 10.65094,-4.85289 32.57188,-25.10492 37.052,-34.23111 3.05813,-6.22954 3.63585,-15.31121 1.26294,-19.85332 -4.06453,-7.78013 -12.02349,-11.46905 -23.83109,-11.04554 -4.25799,0.15273 -7.8164,-0.1396 -7.90759,-0.64963 -0.63366,-3.54442 13.31566,-7.16194 23.1494,-6.0034 12.111,1.42684 23.35635,9.64619 26.03761,19.03118 3.18829,11.15974 0.70729,20.18223 -8.23247,29.93839 -9.63578,10.51576 -21.32435,17.6244 -38.54085,23.43939 -10.31439,3.48376 -11.26429,3.63132 -11.26429,1.74979 z m 170.32418,-4.0437 c -9.65842,-3.15026 -14.55441,-8.04648 -16.91602,-16.91683 -2.99972,-11.26714 -1.26995,-21.30331 4.87488,-28.2842 8.13459,-9.24138 17.32912,-12.87922 36.96593,-14.62568 l 12.75103,-1.13405 -0.0761,-5.07803 c -0.11763,-7.85325 -2.9935,-13.89987 -7.9239,-16.66036 -1.71371,-0.95949 -5.48791,-1.35592 -12,-1.26045 -8.51649,0.12485 -14.72224,1.29326 -25.68465,4.83587 -1.90214,0.6147 -2.3206,0.20114 -3.2359,-3.19803 -2.6776,-9.94385 -2.66751,-10.0204 1.55767,-11.81048 9.75035,-4.13094 19.5905,-5.87155 33.36288,-5.90151 11.97336,-0.026 14.06542,0.22903 18.5,2.25574 5.99587,2.74026 10.90038,7.2278 13.83763,12.66119 2.09915,3.88305 2.17093,5.178 2.45516,44.29113 l 0.2927,40.29114 -8.24761,-0.29114 -8.24762,-0.29113 -1.06398,-4.38098 c -0.90775,-3.7377 -1.25062,-4.15609 -2.33507,-2.84942 -0.69909,0.84236 -4.74061,3.24702 -8.98114,5.34368 -6.95747,3.44001 -8.58859,3.83913 -16.71007,4.08884 -5.62095,0.17283 -10.56781,-0.23465 -13.17582,-1.0853 z m 25.41477,-17.19675 c 1.78142,-0.71983 5.26892,-2.70544 7.75,-4.41247 l 4.51105,-3.10368 V 238.92508 228.3597 l -10.25,0.41435 c -17.62167,0.71233 -24.23234,5.51418 -23.49126,17.06351 0.7269,11.3283 9.6298,15.95754 21.48021,11.16905 z m 153.02674,16.87754 c -11.0192,-3.67505 -16.9448,-13.12349 -16.9731,-27.06365 -0.02,-10.07334 3.4351,-16.92473 11.5529,-22.90575 7.6017,-5.60078 16.0568,-8.13845 31.9045,-9.57568 l 12.75,-1.1563 v -2.74889 c 0,-5.37626 -2.2145,-12.94887 -4.6243,-15.81269 -4.9555,-5.88927 -21.5382,-6.31152 -37.1347,-0.94555 -3.0116,1.03615 -5.7959,1.68595 -6.1874,1.44401 -1.1294,-0.69802 -3.3921,-11.20853 -2.7649,-12.84312 1.2939,-3.3717 23.977,-8.68999 37.0638,-8.68999 12.4444,0 20.7987,2.81095 26.8304,9.02757 2.5755,2.65454 5.256,6.54679 5.9566,8.64944 0.9196,2.75967 1.3676,14.75141 1.6109,43.11414 l 0.337,39.29115 -8.2919,-0.29115 -8.2918,-0.29115 -0.8728,-4.15 -0.8729,-4.14999 -6.0549,3.9135 c -3.3302,2.15243 -8.3075,4.58242 -11.0605,5.4 -6.4395,1.91233 -18.8179,1.8049 -24.8769,-0.2159 z m 25.7343,-16.56033 c 1.65,-0.60509 5.3625,-2.58792 8.25,-4.4063 l 5.25,-3.30614 v -10.51242 -10.51242 h -8.3185 c -14.7341,0 -23.587,4.22182 -25.7578,12.28349 -1.3929,5.17261 -0.028,10.33911 3.7208,14.08823 4.3954,4.39547 9.4036,5.09833 16.8555,2.36556 z m -107.5737,9.01272 c -1.1721,-3.9875 -4.9629,-16.25 -8.4239,-27.25 -3.461,-11 -7.9479,-25.4 -9.971,-32 -2.023,-6.6 -4.9952,-16.05111 -6.6048,-21.00247 -1.6096,-4.95136 -2.9266,-9.33886 -2.9266,-9.75 0,-0.41114 5.1847,-0.74753 11.5215,-0.74753 11.0083,0 11.5624,0.10019 12.4431,2.25 0.9811,2.39499 13.8038,43.5072 16.4525,52.75 0.8668,3.025 2.3794,8.38981 3.3613,11.92179 l 1.7852,6.42179 3.7836,-11.701 c 5.4948,-16.99291 11.5049,-41.09734 12.9222,-51.82631 l 1.2306,-9.31627 11.25,-0.28275 c 6.1875,-0.15551 11.2499,-0.15551 11.2498,0 -10e-4,1.81798 -3.8661,19.45284 -6.9532,31.72585 -6.428,25.55418 -13.8274,47.73678 -20.0067,59.97785 l -3.0687,6.07905 h -12.9568 -12.9568 z M 97.134618,240.62973 c -15.36787,-1.02901 -26.29509,-2.63139 -34.61823,-5.07647 -7.29829,-2.14402 -9.19886,-3.70575 -8.70854,-7.15595 0.92735,-6.5254 33.61576,-18.29015 56.808382,-20.44568 10.43786,-0.9701 8.94302,1.15473 -3.37978,4.80416 -12.453082,3.68801 -22.116752,8.05584 -23.486712,10.61564 -0.9101,1.70053 -0.66687,2.15548 1.65923,3.10345 6.24201,2.54385 14.1541,3.2805 40.819022,3.80043 34.72116,0.67702 63.42558,-1.26239 101.65243,-6.86812 19.03099,-2.79077 19.96736,-2.14566 7.57322,5.21756 -8.01632,4.76241 -8.54947,4.87452 -45.31902,9.52954 -16.45869,2.08366 -25.4005,2.59812 -50.5,2.90546 -16.775,0.20541 -35.9,0.0119 -42.500002,-0.43002 z m 79.500002,-20.60991 c 0,-0.3117 1.09108,-1.9992 2.42463,-3.75 4.29613,-5.64035 8.57537,-14.78464 8.57537,-18.32466 0,-4.35541 -2.30474,-8.84514 -11.40826,-22.22379 -9.8869,-14.52993 -11.95301,-20.05397 -12.01912,-32.13483 -0.0455,-8.31009 0.28917,-10.23097 2.6717,-15.33589 9.25878,-19.83831 33.93433,-36.847251 70.75568,-48.772121 5.15329,-1.66893 8.86748,-2.39303 9.43333,-1.83906 1.14401,1.11998 2.75561,-0.13096 -14.43333,11.20335 -31.67139,20.883991 -45.3698,35.450111 -45.3698,48.243721 0,5.64325 1.51948,9.01198 9.98134,22.12894 6.70465,10.39305 10.38846,19.69584 10.38846,26.23417 0,9.69713 -9.17986,22.28438 -23.37434,32.05043 -4.07033,2.80046 -7.62566,3.97525 -7.62566,2.51974 z M 153.5173,198.81395 c -20.77177,-21.86881 -31.26321,-35.50397 -37.62388,-48.89773 -3.04386,-6.4095 -3.44009,-8.10575 -3.0592,-13.09643 1.14822,-15.04494 11.02752,-26.38939 54.8004,-62.927611 7.975,-6.65691 15.90347,-13.61147 17.61881,-15.45456 5.13644,-5.51897 10.22174,-13.86647 13.6163,-22.35108 2.99676,-7.49035 3.21208,-8.86004 3.37984,-21.5 0.0986,-7.4249998 0.563,-13.4349498 1.03212,-13.3554498 0.46911,0.0795 1.68649,1.26101 2.70529,2.62558 4.91887,6.5882898 6.42667,32.4881798 2.56219,44.0114098 -4.71036,14.04553 -6.77079,16.70385 -33.88564,43.71846 -14.07704,14.025001 -27.45006,27.975001 -29.71782,31.000001 -6.73773,8.98757 -10.72127,17.7316 -10.70597,23.5 0.026,9.78836 7.55405,26.77405 20.83047,47 9.2893,14.15179 8.93897,13.5 7.25611,13.5 -0.78448,0 -4.74854,-3.49767 -8.80902,-7.77259 z"
     id="path826"
     inkscape:connector-curvature="0" />
</svg>
